HIERARCHY
ROOT Hips
{
	OFFSET 0.000000 103.266502 0.000000
	CHANNELS 6 Xposition Yposition Zposition Xrotation Yrotation Zrotation 
	JOINT Spine
	{
		OFFSET -0.002400 12.777504 0.315300
		CHANNELS 3 Xrotation Yrotation Zrotation
		JOINT Spine1
		{
			OFFSET -0.002067 5.816869 0.032633
			CHANNELS 3 Xrotation Yrotation Zrotation
			JOINT Spine1_split
			{
				OFFSET -0.002067 5.816869 0.032633
				CHANNELS 3 Xrotation Yrotation Zrotation
				JOINT Spine2
				{
					OFFSET -0.002067 5.816869 0.032633
					CHANNELS 3 Xrotation Yrotation Zrotation
					JOINT Neck
					{
						OFFSET -0.003700 21.199493 -0.826900
						CHANNELS 3 Xrotation Yrotation Zrotation
						JOINT Head
						{
							OFFSET 0.000000 20.442200 4.834800
							CHANNELS 3 Xrotation Yrotation Zrotation
							JOINT HeadTop_End
							{
								OFFSET 0.000000 34.668396 4.968400
								CHANNELS 3 Xrotation Yrotation Zrotation
								End Site
								{
									OFFSET 0.000000 0.000000 0.000000
								}
							}
						}
					}
					JOINT LeftShoulder
					{
						OFFSET 3.288150 8.794197 -1.372250
						CHANNELS 3 Xrotation Yrotation Zrotation
						JOINT LeftShoulder_split
						{
							OFFSET 3.288150 8.794197 -1.372250
							CHANNELS 3 Xrotation Yrotation Zrotation
							JOINT LeftArm
							{
								OFFSET 11.953299 -2.279007 -0.146200
								CHANNELS 3 Xrotation Yrotation Zrotation
								JOINT LeftForeArm
								{
									OFFSET 18.448900 0.000000 0.000000
									CHANNELS 3 Xrotation Yrotation Zrotation
									JOINT LeftHand
									{
										OFFSET 29.527798 0.000000 0.000000
										CHANNELS 3 Xrotation Yrotation Zrotation
										JOINT LeftHandThumb1
										{
											OFFSET 10.739754 -2.369614 9.225399
											CHANNELS 3 Xrotation Yrotation Zrotation
											JOINT LeftHandThumb2
											{
												OFFSET 4.926170 -2.844131 2.844125
												CHANNELS 3 Xrotation Yrotation Zrotation
												JOINT LeftHandThumb3
												{
													OFFSET 4.614891 -2.664413 2.664409
													CHANNELS 3 Xrotation Yrotation Zrotation
													JOINT LeftHandThumb4
													{
														OFFSET 4.432465 -2.559082 2.559083
														CHANNELS 3 Xrotation Yrotation Zrotation
														End Site
														{
															OFFSET 0.000000 0.000000 0.000000
														}
													}
												}
											}
										}
										JOINT LeftHandIndex1
										{
											OFFSET 26.467674 0.187653 6.405298
											CHANNELS 3 Xrotation Yrotation Zrotation
											JOINT LeftHandIndex2
											{
												OFFSET 8.792900 0.000000 0.000000
												CHANNELS 3 Xrotation Yrotation Zrotation
												JOINT LeftHandIndex3
												{
													OFFSET 10.075203 0.000000 0.000000
													CHANNELS 3 Xrotation Yrotation Zrotation
													End Site
													{
														OFFSET 0.000000 0.000000 0.000000
													}
												}
											}
										}
										JOINT LeftHandMiddle1
										{
											OFFSET 25.764404 0.000000 0.000000
											CHANNELS 3 Xrotation Yrotation Zrotation
											JOINT LeftHandMiddle2
											{
												OFFSET 9.393974 0.000000 0.000000
												CHANNELS 3 Xrotation Yrotation Zrotation
												JOINT LeftHandMiddle3
												{
													OFFSET 10.771950 0.000000 0.000000
													CHANNELS 3 Xrotation Yrotation Zrotation
													End Site
													{
														OFFSET 0.000000 0.000000 0.000000
													}
												}
											}
										}
										JOINT LeftHandRing1
										{
											OFFSET 24.660927 0.144547 -6.225808
											CHANNELS 3 Xrotation Yrotation Zrotation
											JOINT LeftHandRing2
											{
												OFFSET 9.393799 0.000000 0.000000
												CHANNELS 3 Xrotation Yrotation Zrotation
												JOINT LeftHandRing3
												{
													OFFSET 9.928497 0.000000 0.000000
													CHANNELS 3 Xrotation Yrotation Zrotation
													End Site
													{
														OFFSET 0.000000 0.000000 0.000000
													}
												}
											}
										}
										JOINT LeftHandPinky1
										{
											OFFSET 23.655350 0.125290 -12.815412
											CHANNELS 3 Xrotation Yrotation Zrotation
											JOINT LeftHandPinky2
											{
												OFFSET 8.425102 0.000000 0.000000
												CHANNELS 3 Xrotation Yrotation Zrotation
												JOINT LeftHandPinky3
												{
													OFFSET 8.147003 0.000000 0.000000
													CHANNELS 3 Xrotation Yrotation Zrotation
													End Site
													{
														OFFSET 0.000000 0.000000 0.000000
													}
												}
											}
										}
									}
								}
							}
						}
					}
					JOINT RightShoulder
					{
						OFFSET -3.249400 8.794197 -1.372250
						CHANNELS 3 Xrotation Yrotation Zrotation
						JOINT RightShoulder_split
						{
							OFFSET -3.249400 8.794197 -1.372250
							CHANNELS 3 Xrotation Yrotation Zrotation
							JOINT RightArm
							{
								OFFSET -11.953299 -2.279007 -0.146200
								CHANNELS 3 Xrotation Yrotation Zrotation
								JOINT RightForeArm
								{
									OFFSET -18.448900 0.000000 0.000000
									CHANNELS 3 Xrotation Yrotation Zrotation
									JOINT RightHand
									{
										OFFSET -29.527802 0.000000 0.000000
										CHANNELS 3 Xrotation Yrotation Zrotation
										JOINT RightHandThumb1
										{
											OFFSET -10.739754 -2.369614 9.225399
											CHANNELS 3 Xrotation Yrotation Zrotation
											JOINT RightHandThumb2
											{
												OFFSET -4.926170 -2.844131 2.844125
												CHANNELS 3 Xrotation Yrotation Zrotation
												JOINT RightHandThumb3
												{
													OFFSET -4.614891 -2.664413 2.664409
													CHANNELS 3 Xrotation Yrotation Zrotation
													JOINT RightHandThumb4
													{
														OFFSET -4.432465 -2.559082 2.559083
														CHANNELS 3 Xrotation Yrotation Zrotation
														End Site
														{
															OFFSET 0.000000 0.000000 0.000000
														}
													}
												}
											}
										}
										JOINT RightHandIndex1
										{
											OFFSET -26.467674 0.187653 6.405298
											CHANNELS 3 Xrotation Yrotation Zrotation
											JOINT RightHandIndex2
											{
												OFFSET -8.792900 0.000000 0.000000
												CHANNELS 3 Xrotation Yrotation Zrotation
												JOINT RightHandIndex3
												{
													OFFSET -10.075203 0.000000 0.000000
													CHANNELS 3 Xrotation Yrotation Zrotation
													End Site
													{
														OFFSET 0.000000 0.000000 0.000000
													}
												}
											}
										}
										JOINT RightHandMiddle1
										{
											OFFSET -25.764404 0.000000 0.000000
											CHANNELS 3 Xrotation Yrotation Zrotation
											JOINT RightHandMiddle2
											{
												OFFSET -9.393974 0.000000 0.000000
												CHANNELS 3 Xrotation Yrotation Zrotation
												JOINT RightHandMiddle3
												{
													OFFSET -10.771950 0.000000 0.000000
													CHANNELS 3 Xrotation Yrotation Zrotation
													End Site
													{
														OFFSET 0.000000 0.000000 0.000000
													}
												}
											}
										}
										JOINT RightHandRing1
										{
											OFFSET -24.660927 0.144547 -6.225808
											CHANNELS 3 Xrotation Yrotation Zrotation
											JOINT RightHandRing2
											{
												OFFSET -9.393799 0.000000 0.000000
												CHANNELS 3 Xrotation Yrotation Zrotation
												JOINT RightHandRing3
												{
													OFFSET -9.928497 0.000000 0.000000
													CHANNELS 3 Xrotation Yrotation Zrotation
													End Site
													{
														OFFSET 0.000000 0.000000 0.000000
													}
												}
											}
										}
										JOINT RightHandPinky1
										{
											OFFSET -23.655350 0.125290 -12.815412
											CHANNELS 3 Xrotation Yrotation Zrotation
											JOINT RightHandPinky2
											{
												OFFSET -8.425102 0.000000 0.000000
												CHANNELS 3 Xrotation Yrotation Zrotation
												JOINT RightHandPinky3
												{
													OFFSET -8.147003 0.000000 0.000000
													CHANNELS 3 Xrotation Yrotation Zrotation
													End Site
													{
														OFFSET 0.000000 0.000000 0.000000
													}
												}
											}
										}
									}
								}
							}
						}
					}
				}
			}
		}
	}
	JOINT LeftUpLeg
	{
		OFFSET 11.394100 -6.187798 -0.413800
		CHANNELS 3 Xrotation Yrotation Zrotation
		JOINT LeftLeg
		{
			OFFSET 0.430247 -32.302673 3.732800
			CHANNELS 3 Xrotation Yrotation Zrotation
			JOINT LeftFoot
			{
				OFFSET -0.430247 -48.264931 -6.423300
				CHANNELS 3 Xrotation Yrotation Zrotation
				JOINT LeftToeBase
				{
					OFFSET 4.230900 -16.068199 23.438400
					CHANNELS 3 Xrotation Yrotation Zrotation
					JOINT LeftToe_End
					{
						OFFSET 4.510700 0.695400 19.974600
						CHANNELS 3 Xrotation Yrotation Zrotation
						End Site
						{
							OFFSET 0.000000 0.000000 0.000000
						}
					}
				}
			}
		}
	}
	JOINT RightUpLeg
	{
		OFFSET -11.333700 -6.187798 -0.413800
		CHANNELS 3 Xrotation Yrotation Zrotation
		JOINT RightLeg
		{
			OFFSET -0.430392 -32.302628 3.733000
			CHANNELS 3 Xrotation Yrotation Zrotation
			JOINT RightFoot
			{
				OFFSET 0.430392 -48.264973 -6.423500
				CHANNELS 3 Xrotation Yrotation Zrotation
				JOINT RightToeBase
				{
					OFFSET -4.230900 -16.068199 23.438400
					CHANNELS 3 Xrotation Yrotation Zrotation
					JOINT RightToe_End
					{
						OFFSET -4.510700 0.695400 19.974600
						CHANNELS 3 Xrotation Yrotation Zrotation
						End Site
						{
							OFFSET 0.000000 0.000000 0.000000
						}
					}
				}
			}
		}
	}
}
MOTION
Frames: 6
Frame Time: 0.016667
-0.081207 101.120201 0.185159 -4.120276 -1.678091 0.514993 3.459205 1.705461 -2.371639 0.710881 0.526839 -0.263052 0.000000 0.000000 0.000000 0.710199 0.523097 -0.267070 2.609733 -0.754816 0.156820 18.950505 -7.303244 0.624141 -0.000001 -0.000001 -0.000000 2.730607 -4.471829 -12.384155 0.000000 0.000000 0.000000 -6.603770 -10.273114 -60.669148 -0.000005 -16.775179 -0.000018 21.485699 -10.082289 -12.336706 3.397827 -6.557750 3.595396 15.353581 21.247773 9.263501 -12.577501 5.210862 15.704473 -0.000001 0.000001 -0.000000 -1.222340 -0.461777 -28.262341 0.291710 1.827313 -18.139053 -0.000001 0.000000 0.000001 0.095136 4.196361 -33.991191 0.439522 2.228204 -22.314289 0.000001 0.000002 0.000001 5.761724 10.460349 -44.834516 0.435455 2.218269 -22.209386 0.000001 0.000003 0.000001 11.866689 15.214663 -50.260364 0.411975 2.159924 -21.594861 0.000002 0.000000 -0.000003 1.996586 1.476376 14.937832 0.000000 0.000000 0.000000 -2.025623 7.814283 63.299953 -0.000001 12.108133 0.000021 6.522651 12.381295 10.265025 -1.352777 9.111903 0.370095 17.058275 -29.720977 -6.078641 -13.949244 -13.457319 -16.103949 0.000001 -0.000000 -0.000000 -1.823897 1.946413 21.104028 0.341702 -1.752641 22.062542 0.000001 -0.000001 -0.000003 -0.809700 -1.799961 27.787983 0.365850 -1.811053 22.839201 0.000001 -0.000002 0.000000 2.161592 -6.996782 31.854609 0.441467 -1.980956 25.124403 -0.000000 0.000002 0.000003 4.447219 -11.624196 37.638843 0.491085 -2.083406 26.523576 -0.000002 -0.000000 0.000000 -5.841666 8.044564 5.582401 14.673890 9.626180 1.404678 -3.638864 4.703430 -6.851008 0.998366 -0.000005 -0.000004 0.000000 -0.000000 0.000000 -4.100453 -9.104274 -7.576923 15.914530 -9.493813 1.193031 -6.373800 -4.572700 5.453556 -1.455179 -0.000002 -0.000001 -0.000000 -0.000000 0.000000 
-0.203642 101.035164 -0.075563 -4.300172 -1.302041 0.612468 3.648604 1.894787 -2.322671 0.742683 0.579923 -0.240280 0.000000 0.000000 0.000000 0.742191 0.575776 -0.244851 2.557504 -0.815733 0.156847 18.874458 -7.890824 0.747876 -0.000003 -0.000000 -0.000000 2.723279 -4.477274 -12.342098 0.000000 0.000000 0.000000 -6.439323 -9.530075 -60.740005 -0.000001 -16.130147 -0.000014 22.222854 -9.762237 -12.288143 3.397825 -6.557752 3.595398 15.386463 21.304723 9.230586 -12.471116 5.306296 15.630406 -0.000002 0.000002 -0.000007 -1.171227 -0.431674 -28.161486 0.297618 1.845202 -18.323152 -0.000003 -0.000003 -0.000000 0.117136 4.248506 -34.358652 0.437382 2.222932 -22.258688 0.000006 -0.000000 0.000000 5.785880 10.499922 -44.722685 0.442102 2.234456 -22.380455 -0.000001 0.000001 0.000003 12.010676 15.220088 -50.621606 0.430307 2.205655 -22.076450 -0.000001 -0.000000 0.000001 1.997862 1.678049 14.926608 0.000000 0.000000 0.000000 -2.716036 8.083337 63.101980 0.000003 12.576852 -0.000010 6.347673 12.451767 10.578699 -1.352778 9.111904 0.370095 17.109373 -29.778208 -6.033851 -14.027959 -13.265811 -16.227573 -0.000002 0.000001 -0.000001 -1.914896 1.926758 21.734825 0.354104 -1.782944 22.465049 0.000001 -0.000002 -0.000003 -0.822220 -1.866060 28.591686 0.378293 -1.840320 23.229943 0.000002 -0.000001 -0.000000 2.205336 -6.995211 32.676509 0.453280 -2.005939 25.464238 0.000002 0.000001 0.000002 4.563051 -11.613681 38.479404 0.502028 -2.105166 26.822966 -0.000002 0.000002 0.000002 -6.262544 7.971459 5.637315 15.292474 9.625015 1.398366 -3.863312 4.338114 -6.878186 1.064029 0.000005 0.000000 0.000000 0.000002 -0.000000 -4.410559 -8.958930 -7.492312 16.576620 -9.529575 1.032207 -6.546557 -5.048096 5.429681 -1.459489 0.000007 -0.000001 -0.000000 0.000000 -0.000000 
-0.314414 100.965775 -0.325508 -4.505187 -0.965962 0.697966 3.853476 2.097979 -2.263841 0.779252 0.636650 -0.214313 0.000000 0.000000 0.000000 0.779023 0.632011 -0.219523 2.504434 -0.875463 0.156875 18.776654 -8.477598 0.864275 0.000001 0.000000 -0.000000 2.725929 -4.533559 -12.333779 0.000000 0.000000 0.000000 -6.245859 -8.768371 -60.756589 0.000004 -15.406545 0.000011 22.884375 -9.466680 -12.270951 3.397825 -6.557750 3.595397 15.418059 21.359226 9.199028 -12.299707 5.460045 15.504550 0.000001 0.000002 -0.000002 -1.119843 -0.397994 -28.078595 0.305167 1.867849 -18.556297 0.000000 -0.000001 -0.000001 0.143344 4.310972 -34.824259 0.439422 2.227988 -22.312095 -0.000002 -0.000000 0.000001 5.850559 10.548831 -44.833570 0.441420 2.232822 -22.363006 -0.000000 0.000005 0.000002 12.071303 15.267131 -50.593527 0.454692 2.264805 -22.701336 -0.000001 -0.000001 0.000001 1.997979 1.881701 14.910769 0.000000 0.000000 0.000000 -3.306486 8.365061 62.900769 0.000007 13.174785 -0.000029 6.023917 12.660644 11.096658 -1.352779 9.111898 0.370094 17.154635 -29.828782 -5.994237 -14.108548 -13.068055 -16.356717 0.000001 -0.000000 0.000001 -1.992511 1.916379 22.233611 0.366406 -1.812378 22.856907 -0.000001 0.000000 0.000000 -0.836421 -1.925796 29.374581 0.391628 -1.871059 23.641723 -0.000000 -0.000000 0.000002 2.254765 -7.003509 33.488684 0.465554 -2.031488 25.812490 -0.000001 -0.000001 -0.000002 4.679335 -11.600649 39.336637 0.513840 -2.128360 27.142849 0.000000 -0.000001 -0.000002 -6.578979 7.898672 5.675369 15.803504 9.623686 1.403585 -4.050097 4.007104 -6.901572 1.061974 0.000002 0.000000 0.000000 0.000000 -0.000000 -4.622786 -8.864214 -7.428703 17.114728 -9.558942 0.913810 -6.671077 -5.444490 5.395823 -1.463800 0.000008 0.000001 -0.000000 0.000001 -0.000000 
-0.416143 100.909248 -0.563227 -4.717093 -0.637561 0.768924 4.048968 2.287349 -2.187810 0.816892 0.688821 -0.187654 0.000000 0.000000 0.000000 0.816969 0.683691 -0.193516 2.454511 -0.931647 0.156904 18.669868 -9.033301 0.984025 0.000001 0.000000 -0.000000 2.731424 -4.597780 -12.332033 0.000000 0.000000 0.000000 -6.033518 -7.976578 -60.769224 0.000007 -14.615918 0.000017 23.498374 -9.138159 -12.293611 3.397835 -6.557753 3.595400 15.448421 21.411502 9.168662 -12.005064 5.721979 15.280878 -0.000001 -0.000002 -0.000002 -1.062546 -0.357056 -28.005061 0.313273 1.891803 -18.803195 0.000002 -0.000003 -0.000003 0.172064 4.377151 -35.317481 0.443995 2.239080 -22.429277 0.000002 0.000000 -0.000001 5.951460 10.614510 -45.075383 0.435976 2.219538 -22.222864 0.000000 0.000005 -0.000003 12.075868 15.341341 -50.311874 0.484495 2.334699 -23.444134 0.000000 0.000001 -0.000001 2.000277 2.088531 14.902337 0.000000 0.000000 0.000000 -3.800158 8.674482 62.681124 0.000002 13.889296 0.000009 5.628967 13.001802 11.760483 -1.352773 9.111903 0.370095 17.142387 -29.817232 -6.000211 -14.180470 -12.896280 -16.481050 0.000001 -0.000000 -0.000000 -2.046308 1.896136 22.639890 0.378257 -1.840225 23.228773 -0.000001 0.000002 0.000002 -0.864184 -1.957212 30.119454 0.405457 -1.902314 24.061751 0.000002 -0.000001 -0.000001 2.313615 -7.025331 34.301845 0.478625 -2.058262 26.178735 -0.000004 0.000003 0.000002 4.785212 -11.581174 40.184592 0.526301 -2.152476 27.476514 -0.000001 -0.000002 -0.000001 -6.832833 7.828183 5.710202 16.234888 9.622021 1.418645 -4.208202 3.674817 -6.923874 1.059913 0.000003 0.000000 -0.000000 0.000000 -0.000000 -4.758349 -8.823289 -7.387191 17.549018 -9.578324 0.848562 -6.761247 -5.788588 5.344159 -1.468111 -0.000002 0.000000 -0.000000 -0.000000 0.000000 
-0.511768 100.860916 -0.787786 -4.918610 -0.290453 0.832429 4.215571 2.444043 -2.101955 0.853396 0.731220 -0.162389 0.000000 0.000000 0.000000 0.853783 0.725643 -0.168855 2.408680 -0.981839 0.156932 18.564652 -9.531850 1.114007 0.000001 0.000000 0.000000 2.733644 -4.642483 -12.331560 0.000000 0.000000 0.000000 -5.812745 -7.144130 -60.813634 0.000002 -13.796083 -0.000010 24.071629 -8.674791 -12.355077 3.397829 -6.557750 3.595400 15.464136 21.438482 9.152956 -11.744160 5.950607 15.079331 -0.000002 0.000000 -0.000003 -1.018042 -0.330301 -27.916491 0.321241 1.915047 -19.043160 0.000001 -0.000003 0.000000 0.201495 4.442306 -35.796823 0.448446 2.249804 -22.542698 0.000002 -0.000000 0.000000 6.048672 10.676445 -45.309638 0.428125 2.200268 -22.019417 -0.000000 0.000002 -0.000002 12.049010 15.428704 -49.899176 0.517222 2.408718 -24.235086 0.000002 -0.000003 -0.000003 2.006186 2.285587 14.907446 0.000000 0.000000 0.000000 -4.196578 9.036013 62.436528 0.000004 14.723540 -0.000009 5.200670 13.391521 12.514491 -1.352774 9.111904 0.370096 17.127686 -29.803032 -6.008339 -14.246689 -12.736474 -16.597042 0.000001 0.000001 0.000001 -2.095593 1.862927 23.101103 0.389636 -1.866494 23.580441 -0.000001 0.000001 0.000001 -0.890216 -1.988038 30.823694 0.419385 -1.933163 24.477559 -0.000001 -0.000002 -0.000002 2.376945 -7.052681 35.113518 0.492760 -2.086759 26.569731 -0.000000 -0.000001 0.000001 4.911595 -11.574334 41.016840 0.539145 -2.176984 27.816502 0.000000 -0.000002 0.000000 -7.066902 7.760484 5.746323 16.623234 9.620841 1.434502 -4.357406 3.329051 -6.942212 1.057855 0.000010 -0.000001 -0.000000 0.000000 -0.000000 -4.848146 -8.818015 -7.358357 17.910868 -9.591144 0.817267 -6.832628 -6.121743 5.284689 -1.472419 0.000000 0.000002 0.000000 -0.000002 -0.000000 
-0.603151 100.820435 -0.998192 -5.104940 0.089215 0.899270 4.348970 2.566493 -2.023392 0.888732 0.764049 -0.138985 0.000000 0.000000 0.000000 0.889419 0.758037 -0.145994 2.367453 -1.025847 0.156960 18.471999 -9.975001 1.249565 0.000001 -0.000000 0.000000 2.735173 -4.675173 -12.326564 0.000000 0.000000 0.000000 -5.571912 -6.283269 -60.870475 0.000000 -12.982565 -0.000004 24.594634 -8.098024 -12.453229 3.397830 -6.557753 3.595398 15.469719 21.448088 9.147368 -11.507181 6.155544 14.893509 0.000000 0.000002 -0.000001 -0.982877 -0.314036 -27.815819 0.328814 1.936808 -19.268367 0.000003 0.000001 -0.000001 0.230808 4.504597 -36.246564 0.451486 2.257134 -22.620251 -0.000002 -0.000001 0.000003 6.132987 10.735394 -45.470666 0.419417 2.178594 -21.791394 -0.000001 0.000001 -0.000003 12.008225 15.520739 -49.435116 0.548942 2.477887 -24.978816 -0.000001 -0.000003 0.000002 2.014541 2.451924 14.923613 0.000000 0.000000 0.000000 -4.495739 9.460790 62.173750 -0.000005 15.675957 0.000038 4.762229 13.744806 13.331821 -1.352776 9.111905 0.370096 17.184063 -29.863879 -5.963311 -14.300278 -12.596601 -16.681687 0.000002 0.000000 -0.000000 -2.143874 1.833298 23.597008 0.400687 -1.891619 23.917825 0.000001 0.000000 -0.000002 -0.897521 -2.047157 31.497127 0.433230 -1.963284 24.884992 0.000003 -0.000003 -0.000002 2.435242 -7.073506 35.903921 0.507864 -2.116693 26.981725 0.000001 0.000002 -0.000002 5.053118 -11.575186 41.840533 0.552451 -2.202003 28.164927 -0.000002 0.000001 -0.000001 -7.285215 7.695264 5.777806 16.964634 9.619682 1.444729 -4.494423 2.969104 -6.953103 1.055799 0.000012 0.000001 -0.000000 0.000003 0.000000 -4.906302 -8.828409 -7.332515 18.218379 -9.602034 0.795856 -6.893893 -6.475298 5.223548 -1.476728 0.000001 0.000000 0.000000 -0.000001 -0.000000 
